# xmcd
#
# Track frame offsets: 
#        150
#        18433
#        32299
#        51262
#        67061
#        86209
#        107362
#        126308
#        152277
#        171719
#        192131
#        210821
#
# Disc length: 3114 seconds
#
# Revision: 0
# Processed by: cddbd v1.5.2PL0 Copyright (c) Steve Scherf et al.
# Submitted via: ExactAudioCopy v0.95b4
#
DISCID=980c280c
DTITLE=Kamilla - Beneath the Roots
DYEAR=2009
DGENRE=Gothic Rock
TTITLE0=Dead Leaves
TTITLE1=Live or Die
TTITLE2=You Fell on Me
TTITLE3=Window Pain
TTITLE4=Snow White
TTITLE5=Screaming Daisies
TTITLE6=Crush to Dust
TTITLE7=Memory Void
TTITLE8=Peace and Quiet
TTITLE9=Narcissus
TTITLE10=Discontinued
TTITLE11=Masquerade
EXTD=
EXTT0=
EXTT1=
EXTT2=
EXTT3=
EXTT4=
EXTT5=
EXTT6=
EXTT7=
EXTT8=
EXTT9=
EXTT10=
EXTT11=
PLAYORDER=
